<?xml version="1.0" standalone="no"?>
<!DOCTYPE svg PUBLIC "-//W3C//DTD SVG 20010904//EN"
 "http://www.w3.org/TR/2001/REC-SVG-20010904/DTD/svg10.dtd">
<svg version="1.0" xmlns="http://www.w3.org/2000/svg"
 width="160.000000pt" height="160.000000pt" viewBox="0 0 160.000000 160.000000"
 preserveAspectRatio="xMidYMid meet">

<g transform="translate(0.000000,160.000000) scale(0.100000,-0.100000)"
fill="#000000" stroke="none">
<path d="M900 1136 c0 -2 8 -10 18 -17 15 -13 16 -12 3 4 -13 16 -21 21 -21
13z"/>
<path d="M909 883 c-13 -16 -12 -17 4 -4 9 7 17 15 17 17 0 8 -8 3 -21 -13z"/>
<path d="M176 749 c-19 -15 -26 -30 -26 -53 0 -42 24 -64 87 -80 32 -8 49 -18
51 -30 7 -36 -55 -49 -85 -18 -20 19 -63 18 -63 -3 0 -26 51 -55 97 -55 84 0
129 46 107 109 -7 20 -22 30 -69 45 -65 21 -80 33 -63 53 14 17 48 16 68 -2
16 -14 60 -10 60 5 0 21 -55 50 -95 50 -28 0 -51 -7 -69 -21z"/>
<path d="M400 640 l0 -130 30 0 c30 0 30 1 30 55 l0 55 45 0 45 0 0 -55 c0
-54 0 -55 30 -55 l30 0 0 130 0 130 -29 0 c-29 0 -30 -2 -33 -52 l-3 -51 -40
0 -40 0 -3 51 c-3 50 -4 52 -33 52 l-29 0 0 -130z"/>
<path d="M670 640 l0 -130 30 0 30 0 0 130 0 130 -30 0 -30 0 0 -130z"/>
<path d="M782 748 c3 -20 9 -23 58 -25 30 -1 59 -2 63 -2 4 -1 -24 -39 -62
-85 -40 -46 -71 -93 -71 -105 0 -20 4 -21 110 -21 l110 0 0 26 c0 25 -1 26
-70 22 -39 -2 -70 -1 -70 2 0 3 29 41 65 84 40 48 65 87 65 102 0 24 -1 24
-101 24 -98 0 -100 0 -97 -22z"/>
<path d="M1030 640 l0 -130 95 0 c95 0 95 0 95 25 0 24 -2 25 -65 25 l-65 0 0
30 c0 29 1 30 50 30 43 0 50 3 50 20 0 17 -7 20 -50 20 -49 0 -50 1 -50 30 l0
30 65 0 c63 0 65 1 65 25 0 25 0 25 -95 25 l-95 0 0 -130z"/>
<path d="M1270 641 c0 -123 1 -131 20 -131 17 0 19 8 22 88 l3 87 54 -87 c43
-70 59 -88 78 -88 23 0 23 0 23 130 0 122 -1 130 -20 130 -17 0 -19 -8 -22
-77 l-3 -78 -46 75 c-39 65 -49 75 -77 78 l-32 3 0 -130z"/>
</g>
</svg>
