<?xml version="1.0" standalone="no"?>
<!DOCTYPE svg PUBLIC "-//W3C//DTD SVG 20010904//EN"
 "http://www.w3.org/TR/2001/REC-SVG-20010904/DTD/svg10.dtd">
<svg version="1.0" xmlns="http://www.w3.org/2000/svg"
 width="225.000000pt" height="225.000000pt" viewBox="0 0 225.000000 225.000000"
 preserveAspectRatio="xMidYMid meet" troke="currentColor" stroke-width="2">

<g transform="translate(0.000000,225.000000) scale(0.100000,-0.100000)"
fill="#000000" stroke="none">
<path d="M1443 2243 c-10 -4 -13 -133 -13 -599 l0 -594 -60 0 -60 0 0 200 c0
270 21 250 -258 250 -197 0 -211 -1 -236 -21 l-26 -20 0 -205 0 -204 -60 0
-60 0 0 204 0 205 -26 20 c-25 20 -39 21 -236 21 -280 0 -258 23 -258 -265 0
-143 -3 -215 -10 -215 -6 0 -33 -22 -60 -49 -104 -104 -104 -267 -1 -365 l31
-30 0 -269 c0 -166 4 -276 10 -288 10 -17 22 -19 138 -19 86 0 132 4 140 12 9
9 12 82 12 265 l0 253 507 -2 508 -3 3 -255 c2 -188 6 -256 15 -262 21 -13
781 -10 795 4 17 17 17 2209 0 2226 -9 9 -110 12 -397 11 -213 0 -392 -3 -398
-6z m645 -155 c8 -8 12 -63 12 -180 0 -155 -1 -168 -19 -178 -12 -6 -108 -10
-243 -10 -186 0 -227 3 -246 16 -21 15 -22 21 -22 170 0 88 4 164 10 175 10
18 24 19 253 19 176 0 246 -3 255 -12z m-450 -450 c7 -7 12 -41 12 -83 0 -89
-24 -119 -64 -79 -19 18 -22 124 -6 155 12 21 40 25 58 7z m150 0 c7 -7 12
-41 12 -83 0 -89 -24 -119 -64 -79 -19 18 -22 124 -6 155 12 21 40 25 58 7z
m150 0 c7 -7 12 -41 12 -83 0 -89 -24 -119 -64 -79 -19 18 -22 124 -6 155 12
21 40 25 58 7z m150 0 c7 -7 12 -41 12 -83 0 -89 -24 -119 -64 -79 -19 18 -22
124 -6 155 12 21 40 25 58 7z m-1788 -283 l0 -75 110 0 109 0 3 73 3 72 38 3
37 3 0 -190 0 -191 -190 0 -190 0 0 183 c0 101 3 187 7 190 3 4 21 7 40 7 l33
0 0 -75z m640 0 l0 -75 110 0 110 0 0 75 0 75 40 0 40 0 0 -190 0 -190 -190 0
-190 0 0 190 0 190 40 0 40 0 0 -75z m848 23 c8 -8 12 -46 12 -103 0 -57 -4
-95 -12 -103 -8 -8 -45 -12 -99 -12 -114 0 -119 5 -119 115 0 110 5 115 119
115 54 0 91 -4 99 -12z m300 0 c8 -8 12 -46 12 -103 0 -57 -4 -95 -12 -103 -8
-8 -45 -12 -99 -12 -114 0 -119 5 -119 115 0 110 5 115 119 115 54 0 91 -4 99
-12z m0 -300 c8 -8 12 -46 12 -103 0 -57 -4 -95 -12 -103 -9 -9 -78 -12 -249
-12 -203 0 -240 2 -253 16 -12 11 -16 36 -16 99 0 63 4 88 16 99 13 14 50 16
253 16 171 0 240 -3 249 -12z m-1712 -212 c26 -26 34 -42 34 -70 0 -63 -28
-99 -92 -119 -29 -10 -86 13 -108 42 -12 18 -20 45 -20 71 0 34 6 48 34 76 28
28 42 34 76 34 34 0 48 -6 76 -34z m300 0 c26 -26 34 -42 34 -70 0 -63 -28
-99 -92 -119 -29 -10 -86 13 -108 42 -12 18 -20 45 -20 71 0 34 6 48 34 76 28
28 42 34 76 34 34 0 48 -6 76 -34z m300 0 c26 -26 34 -42 34 -70 0 -63 -28
-99 -92 -119 -29 -10 -86 13 -108 42 -12 18 -20 45 -20 71 0 34 6 48 34 76 28
28 42 34 76 34 34 0 48 -6 76 -34z m300 0 c26 -26 34 -42 34 -70 0 -63 -28
-99 -92 -119 -29 -10 -86 13 -108 42 -12 18 -20 45 -20 71 0 34 6 48 34 76 28
28 42 34 76 34 34 0 48 -6 76 -34z m362 -88 c17 -17 17 -599 0 -616 -18 -18
-46 -14 -58 7 -6 12 -10 127 -10 305 0 245 2 287 16 300 19 19 36 20 52 4z
m150 0 c17 -17 17 -599 0 -616 -18 -18 -46 -14 -58 7 -6 12 -10 127 -10 305 0
245 2 287 16 300 19 19 36 20 52 4z m150 0 c17 -17 17 -599 0 -616 -18 -18
-46 -14 -58 7 -6 12 -10 127 -10 305 0 245 2 287 16 300 19 19 36 20 52 4z
m150 0 c17 -17 17 -599 0 -616 -18 -18 -46 -14 -58 7 -6 12 -10 127 -10 305 0
245 2 287 16 300 19 19 36 20 52 4z m-1750 -475 l-3 -228 -72 -3 -73 -3 0 231
0 230 75 0 75 0 -2 -227z"/>
<path d="M1650 1910 l0 -110 185 0 185 0 0 110 0 110 -185 0 -185 0 0 -110z"/>
<path d="M1650 1275 c0 -33 2 -35 35 -35 33 0 35 2 35 35 0 33 -2 35 -35 35
-33 0 -35 -2 -35 -35z"/>
<path d="M1950 1275 c0 -33 2 -35 35 -35 33 0 35 2 35 35 0 33 -2 35 -35 35
-33 0 -35 -2 -35 -35z"/>
<path d="M1650 975 l0 -35 185 0 185 0 0 35 0 35 -185 0 -185 0 0 -35z"/>
<path d="M271 806 c-16 -20 3 -56 29 -56 26 0 45 36 29 56 -6 8 -19 14 -29 14
-10 0 -23 -6 -29 -14z"/>
<path d="M571 806 c-16 -20 3 -56 29 -56 26 0 45 36 29 56 -6 8 -19 14 -29 14
-10 0 -23 -6 -29 -14z"/>
<path d="M871 806 c-16 -20 3 -56 29 -56 26 0 45 36 29 56 -6 8 -19 14 -29 14
-10 0 -23 -6 -29 -14z"/>
<path d="M1171 806 c-16 -20 3 -56 29 -56 26 0 45 36 29 56 -6 8 -19 14 -29
14 -10 0 -23 -6 -29 -14z"/>
</g>
</svg>
